<?xml version="1.0" standalone="no"?><!DOCTYPE svg PUBLIC "-//W3C//DTD SVG 1.1//EN" "http://www.w3.org/Graphics/SVG/1.1/DTD/svg11.dtd"><svg width="128px" height="128px" viewBox="0 0 128 128" version="1.1" xmlns:xlink="http://www.w3.org/1999/xlink" xmlns="http://www.w3.org/2000/svg" style="height:128px;width:128px;perspective-origin:64px 64px;transform-origin:64px 64px;">
          <g stroke="none" fill="#000000" fill-rule="evenodd" style="height:auto;overflow-x:visible;overflow-y:visible;width:auto;perspective-origin:0px 0px;transform-origin:0px 0px;fill-rule:evenodd;">
            <path id="nzz" d="M56.8594321,10.7315278 L50.1227598,10.7315278 L50.1227598,11.9433377 C50.5424391,11.9519809 50.9612003,11.9862845 51.3767064,12.046057 C52.5371266,12.2091586 52.6652924,12.8851625 52.7214083,13.386266 C52.846803,14.2718728 52.9049972,15.616246 52.9049972,17.7442009 L52.9049972,23.4652483 L42.1078932,10.7315278 L37.8548666,10.7315278 L37.8548666,11.9343151 C37.8548666,11.9343151 39.1503805,11.9530544 39.7434072,12.3722601 C40.8414764,13.1433488 40.7437933,13.8776528 40.7437933,15.362224 L40.7437933,21.1811324 C40.7437933,23.1154475 40.692527,24.5854437 40.5858376,25.6785712 C40.525565,26.267819 40.3412834,26.7432427 39.7295514,26.9833837 C39.2155026,27.1839639 38.252527,27.1915984 38.252527,27.1915984 L38.252527,28.4034083 L45.0176036,28.4034083 L45.0176036,27.1950687 C45.0176036,27.1950687 43.9195344,27.171471 43.3472913,26.9618681 C42.684293,26.7175628 42.5332652,26.2463034 42.4729926,25.6244354 C42.3663032,24.6062652 42.3150369,23.1515381 42.3150369,21.1825205 L42.3150369,15.149845 L53.2957297,28.4235357 L54.4734696,28.4235357 L54.4734696,17.7435068 C54.4734696,15.4531445 54.5178081,14.1663773 54.6314253,13.2946515 C54.6709143,12.8615648 54.8454969,12.4000221 55.306201,12.1994419 C55.8971493,11.9433377 56.8580466,11.9405615 56.8580466,11.9405615 L56.8580466,10.7315278 M60.4515389,10.0694049 L59.4386826,10.0694049 C59.3527768,12.4444412 59.0922885,15.3830455 59.0922885,15.3830455 L60.303975,15.4246885 C60.4721217,14.7411843 60.7074328,14.0760458 61.0064622,13.4390137 C61.5606928,12.3132659 61.8253379,12.1709859 64.6512209,12.1668216 L69.1404884,12.1668216 L57.7940034,27.7475318 L58.1403975,28.4047964 L72.3016809,28.4047964 C72.7173538,26.8778882 73.3533333,23.4770472 73.3533333,23.4770472 L72.1458035,23.2278835 C72.1458035,23.2278835 71.5340716,25.1316604 70.6687791,26.0665447 C69.9662919,26.8237524 68.0888359,26.9688086 65.0911414,26.9688086 C63.6231232,26.9688086 62.6206587,26.9341062 61.7858489,26.8542905 L72.9813061,11.3624186 L72.6647019,10.7308338 L61.713799,10.7308338 C60.7251902,10.7308338 60.7251902,10.564956 60.4556956,10.0687109 M77.2010789,10.0687109 L76.186837,10.0687109 C76.1009313,12.4437472 75.8404429,15.3823515 75.8404429,15.3823515 L77.0521295,15.4239944 C77.2202849,14.7404928 77.4555957,14.0753552 77.7546167,13.4383197 C78.3088472,12.3125719 78.5734923,12.1702918 81.3993754,12.1661275 L85.8886428,12.1661275 L74.5400795,27.7475318 L74.8913231,28.4047964 L89.0505281,28.4047964 C89.466201,26.8778882 90.1021806,23.4770472 90.1021806,23.4770472 L88.8946508,23.2278835 C88.8946508,23.2278835 88.2829188,25.1316604 87.4176263,26.0665447 C86.7151391,26.8237524 84.8376831,26.9688086 81.8399886,26.9688086 C80.3719705,26.9688086 79.369506,26.9341062 78.5346962,26.8542905 L89.7301533,11.3624186 L89.4114708,10.7308338 L78.4571039,10.7308338 C77.4684952,10.7308338 77.4684952,10.564956 77.1990006,10.0687109" style="height:auto;overflow-x:visible;overflow-y:visible;width:auto;perspective-origin:0px 0px;transform-origin:0px 0px;fill-rule:evenodd;d:path('M 56.8594 10.7315 L 50.1228 10.7315 L 50.1228 11.9433 C 50.5424 11.952 50.9612 11.9863 51.3767 12.0461 C 52.5371 12.2092 52.6653 12.8852 52.7214 13.3863 C 52.8468 14.2719 52.905 15.6162 52.905 17.7442 L 52.905 23.4652 L 42.1079 10.7315 L 37.8549 10.7315 L 37.8549 11.9343 C 37.8549 11.9343 39.1504 11.9531 39.7434 12.3723 C 40.8415 13.1433 40.7438 13.8777 40.7438 15.3622 L 40.7438 21.1811 C 40.7438 23.1154 40.6925 24.5854 40.5858 25.6786 C 40.5256 26.2678 40.3413 26.7432 39.7296 26.9834 C 39.2155 27.184 38.2525 27.1916 38.2525 27.1916 L 38.2525 28.4034 L 45.0176 28.4034 L 45.0176 27.1951 C 45.0176 27.1951 43.9195 27.1715 43.3473 26.9619 C 42.6843 26.7176 42.5333 26.2463 42.473 25.6244 C 42.3663 24.6063 42.315 23.1515 42.315 21.1825 L 42.315 15.1498 L 53.2957 28.4235 L 54.4735 28.4235 L 54.4735 17.7435 C 54.4735 15.4531 54.5178 14.1664 54.6314 13.2947 C 54.6709 12.8616 54.8455 12.4 55.3062 12.1994 C 55.8971 11.9433 56.858 11.9406 56.858 11.9406 L 56.858 10.7315 M 60.4515 10.0694 L 59.4387 10.0694 C 59.3528 12.4444 59.0923 15.383 59.0923 15.383 L 60.304 15.4247 C 60.4721 14.7412 60.7074 14.076 61.0065 13.439 C 61.5607 12.3133 61.8253 12.171 64.6512 12.1668 L 69.1405 12.1668 L 57.794 27.7475 L 58.1404 28.4048 L 72.3017 28.4048 C 72.7174 26.8779 73.3533 23.477 73.3533 23.477 L 72.1458 23.2279 C 72.1458 23.2279 71.5341 25.1317 70.6688 26.0665 C 69.9663 26.8238 68.0888 26.9688 65.0911 26.9688 C 63.6231 26.9688 62.6207 26.9341 61.7859 26.8543 L 72.9813 11.3624 L 72.6647 10.7308 L 61.7138 10.7308 C 60.7252 10.7308 60.7252 10.565 60.4557 10.0687 M 77.2011 10.0687 L 76.1868 10.0687 C 76.1009 12.4437 75.8404 15.3824 75.8404 15.3824 L 77.0521 15.424 C 77.2203 14.7405 77.4556 14.0754 77.7546 13.4383 C 78.3088 12.3126 78.5735 12.1703 81.3994 12.1661 L 85.8886 12.1661 L 74.5401 27.7475 L 74.8913 28.4048 L 89.0505 28.4048 C 89.4662 26.8779 90.1022 23.477 90.1022 23.477 L 88.8947 23.2279 C 88.8947 23.2279 88.2829 25.1317 87.4176 26.0665 C 86.7151 26.8238 84.8377 26.9688 81.84 26.9688 C 80.372 26.9688 79.3695 26.9341 78.5347 26.8543 L 89.7302 11.3624 L 89.4115 10.7308 L 78.4571 10.7308 C 77.4685 10.7308 77.4685 10.565 77.199 10.0687');"/>
            <rect id="divider" x="3" y="36.1129067" width="122" height="2.66723104" style="height:auto;overflow-x:visible;overflow-y:visible;width:auto;perspective-origin:0px 0px;transform-origin:0px 0px;fill-rule:evenodd;x:3px;y:36.1129px;"/>
            <path id="storytelling" transform="translate(18.241340, 55.876651)" d="M0.819568427,17.4560312 C1.31590309,17.3555833 1.82727692,17.3555833 2.32361158,17.4560312 L3.02540602,21.6751562 C3.96136286,22.4115424 5.59911414,22.7800825 7.13641113,22.7800825 C9.84382737,22.7800825 14.0220329,21.6751562 14.0220329,18.2930545 C14.0220329,15.7146618 11.6824872,14.7770013 9.47595684,13.8393408 C6.40067007,12.5331403 2.92495173,10.9243342 2.92495173,7.24587354 C2.92495173,2.35699105 7.06990346,0.0131869346 11.8494492,0.0131869346 C14.3899035,0.0131869346 16.8299035,0.649630042 18.6346167,1.78787071 L17.9328223,6.5074052 C17.4364876,6.60785305 16.9251138,6.60785305 16.4287791,6.5074052 L15.827439,2.69013466 C14.7882567,2.28828018 13.387439,2.02037719 11.9838501,2.02037719 C9.14341851,2.02037719 6.26834753,3.09198914 6.26834753,6.17287349 C6.26973311,9.11633611 8.74160136,10.088005 11.5487791,11.2609481 C14.3892107,12.4665115 17.2642817,13.9059696 17.2642817,17.1541198 C17.2642817,22.2775909 12.6516979,24.7886609 7.73844407,24.7886609 C4.79686542,24.7886609 2.05758092,23.9183232 0.0173197047,22.3442196 L0.819568427,17.4560312 ZM23.8090517,19.2640293 C23.6753436,19.9004724 23.5748893,20.5362215 23.5748893,21.1060359 C23.5748893,22.0436963 23.8755593,22.7134538 25.0124248,22.7134538 C26.0820897,22.7134538 27.4524248,22.1443334 28.0205111,21.7757933 C28.2712448,22.1998951 28.3879032,22.6901234 28.3551278,23.181937 C26.8843384,24.1536059 25.1461329,24.7893549 23.7092902,24.7893549 C21.6039069,24.7893549 20.5674957,23.5837915 20.5674957,21.5745191 C20.5788946,21.0683228 20.6347644,20.5641153 20.7344577,20.0677383 L23.0407496,8.38133801 L20.200318,8.38133801 C20.200318,8.04680631 20.2695968,7.54431469 20.4005338,7.20908893 L23.3753663,6.70659732 L24.3113231,1.75039206 L26.9515389,1.24790044 L27.252209,1.58243215 L26.2823055,6.70590327 L30.4937649,6.70590327 C30.491411,7.27718344 30.3896645,7.84367931 30.1930948,8.37994992 L25.9483816,8.37994992 L23.8090517,19.2640293 ZM30.1459852,17.7225461 C30.1459852,11.5614714 33.388234,6.37067751 39.8055309,6.37067751 C44.2178989,6.37067751 46.1563203,9.55150495 46.1563203,13.3021468 C46.1563203,19.3632783 43.4156502,24.7879668 36.5632822,24.7879668 C32.0518455,24.7893549 30.1459852,21.5398166 30.1459852,17.7225461 L30.1459852,17.7225461 Z M33.1208177,17.6531411 C33.1208177,19.9636309 33.9230664,22.843241 36.8306985,22.843241 C41.4432822,22.843241 43.1814878,17.8877298 43.1814878,13.4340161 C43.1814878,11.1235264 42.2455309,8.310545 39.4404316,8.310545 C34.9262237,8.31401524 33.1208177,13.4374864 33.1208177,17.6566114 L33.1208177,17.6531411 ZM61.5452243,10.9264164 C61.0103918,11.0603679 60.5427598,11.0603679 60.1076888,10.9264164 L59.7065645,8.91714399 C55.9655082,9.01778112 53.222067,16.3511049 52.2196025,21.1060359 L51.5178081,24.4548232 L48.9773538,24.7893549 L48.6766837,24.4548232 L51.5863941,8.54929792 L49.0791936,8.54929792 C48.9253051,8.09759537 48.8684088,7.6184181 48.9122317,7.14315426 L53.1908915,6.40676807 C54.628427,6.17217944 54.8618966,7.04321118 54.628427,8.08081472 L53.7596706,12.233311 L53.8933788,12.2666254 C55.1972061,9.28637816 57.6032595,6.37345371 60.7457467,6.37345371 C61.2316849,6.37679047 61.7150505,6.44446814 62.1832822,6.57472797 L61.5452243,10.9264164 ZM66.0067802,9.51957869 L63.8341965,10.7917709 C63.4545916,10.4906789 63.1559855,10.0994466 62.9654401,9.65353018 L65.7733106,7.17299838 C66.3746508,6.6371924 66.9094832,6.36928941 67.3106076,6.36928941 C68.0456559,6.36928941 68.3802726,6.93840975 68.6476888,8.0100217 L72.1573538,21.3357661 L72.2924475,21.3357661 C74.8661556,16.8820525 76.6043612,11.189461 76.6043612,9.48210003 C76.6043612,8.71170543 76.3701988,7.94200488 76.0362748,7.17161028 C76.470653,6.73644144 76.7380693,6.50185281 77.4398637,6.26934633 C78.4097672,6.9391038 79.3796706,8.1779816 79.3796706,9.24959355 C79.3796706,13.136269 70.5556275,31.1489276 63.2023737,31.1489276 C62.0322544,31.1489276 60.9965361,30.6131217 60.3945031,29.1396552 C60.7519845,28.5182736 61.2147526,27.9640078 61.762067,27.5016991 C62.4971153,28.4393596 63.1996025,28.8412141 64.1016127,28.8412141 C66.2076888,28.8412141 68.2798183,26.9672813 70.0512777,24.6220891 L66.0067802,9.51957869 ZM81.4725838,15.8152989 C81.4357567,15.0171485 81.5609029,14.2198072 81.8404543,13.4714948 L91.4702101,13.4714948 C91.5034639,14.3418325 91.3697558,15.1455414 91.1023396,15.8152989 L81.4725838,15.8152989 L81.4725838,15.8152989 ZM3.90109029,53.8658517 C3.76738217,54.5022948 3.66692788,55.1380438 3.66692788,55.7078582 C3.66692788,56.6455187 3.96759796,57.3152761 5.10446337,57.3152761 C6.17412834,57.3152761 7.54446337,56.7461558 8.11254969,56.3776157 C8.36300117,56.8018105 8.47941387,57.2920209 8.44647359,57.7837593 C6.97568427,58.7554282 5.23747871,59.3911773 3.800636,59.3911773 C1.69455991,59.3911773 0.658841567,58.1856138 0.658841567,56.1763414 C0.670240464,55.6701451 0.72611022,55.1659376 0.825803521,54.6695606 L3.13278819,42.9859366 L0.292356616,42.9859366 C0.292356616,42.6514049 0.361635434,42.1489132 0.49326519,41.8136875 L3.46809767,41.3111959 L4.40405451,36.3549906 L7.0442703,35.852499 L7.34494037,36.1870307 L6.37503691,41.3105018 L10.5864963,41.3105018 C10.5850118,41.8821293 10.4839655,42.4491123 10.2879046,42.9859366 L6.04042022,42.9859366 L3.90109029,53.8658517 ZM17.8995684,57.0140588 C19.8393754,57.0140588 22.0105735,56.1770355 23.4813629,55.0047864 C23.830215,55.3455456 24.1031469,55.7563984 24.282226,56.2103498 C22.5107666,58.2196222 19.6696422,59.3911773 17.0287337,59.3911773 C13.6527768,59.3911773 10.6446905,57.4478395 10.6446905,52.7609254 C10.6446905,46.7671165 14.4217717,40.973888 20.5716525,40.973888 C23.7806474,40.973888 25.3179443,43.2510634 25.3179443,45.728819 C25.3179443,46.5991566 25.1509824,47.436874 24.8163657,48.3405261 L13.6548552,51.2874589 C13.6216014,51.655999 13.6216014,52.0578535 13.6216014,52.3923852 C13.6209086,55.7744869 15.5932765,57.0140588 17.8995684,57.0140588 L17.8995684,57.0140588 Z M13.9887791,49.6488088 L19.8047359,47.774876 C21.6433958,47.1724413 22.6126065,46.7705868 22.6126065,45.263112 C22.6126065,43.7230168 21.642703,42.8519851 20.1726065,42.8519851 C16.730142,42.8519851 14.6573197,46.166764 13.9555253,49.5148573 L13.9887791,49.6488088 ZM30.6510278,57.213945 L33.8260761,56.7787761 C33.993038,57.213945 34.0262919,57.750445 33.993038,58.1849198 L29.2127995,59.3231604 C27.7752641,59.6576921 27.474594,58.7540401 27.6755026,57.6824282 L31.6867462,35.7830941 L29.1802385,35.7830941 C29.0263704,35.3313869 28.9694746,34.852214 29.0132765,34.3769504 L33.2579898,33.6405642 C34.6955253,33.4059756 34.8957411,34.2770073 34.6955253,35.3146109 L30.6510278,57.213945 ZM40.1865645,57.213945 L43.3616127,56.7787761 C43.5285747,57.213945 43.5618285,57.750445 43.5285747,58.1849198 L38.7483362,59.3231604 C37.3108007,59.6576921 37.0101306,58.7540401 37.2110392,57.6824282 L41.2222828,35.7830941 L38.7157751,35.7830941 C38.5618661,35.3313962 38.5049693,34.8522145 38.5488132,34.3769504 L42.7935264,33.6405642 C44.2310619,33.4059756 44.4312777,34.2770073 44.2310619,35.3146109 L40.1865645,57.213945 ZM50.0234639,57.213945 L52.8638955,56.8794132 C53.0308575,57.3145821 53.0648041,57.8510821 53.0308575,58.2855569 L48.5852357,59.3266307 C47.1477002,59.6611624 46.8470301,58.7575103 47.0479387,57.6858984 L49.7221011,43.1532024 L47.213515,43.1532024 C47.0596061,42.7015045 47.0027092,42.2223229 47.0465531,41.7470588 L51.2912663,41.0106726 C52.7288018,40.7760839 52.9290176,41.6471157 52.7288018,42.6847192 L50.0234639,57.213945 Z M52.7308802,34.7788049 C53.1105483,34.782222 53.4897831,34.8053881 53.8670528,34.8482098 C53.9056258,35.9435964 53.6880759,37.0328507 53.231766,38.0290373 C52.6853581,38.165873 52.1239728,38.2334924 51.5607609,38.2303115 C51.1353891,38.2327802 50.7105741,38.1991139 50.2908802,38.1296744 C50.2444391,37.0464852 50.4149849,35.9649462 50.7924588,34.9488469 C51.4325537,34.836794 52.0810869,34.7801357 52.7308802,34.7794989 L52.7308802,34.7788049 ZM70.4794208,57.213945 L73.3198524,56.8794132 C73.4868143,57.3145821 73.5207609,57.8510821 73.4868143,58.2855569 L69.0411925,59.3266307 C67.603657,59.6611624 67.3029869,58.7575103 67.5038955,57.6858984 L69.1056218,48.9103404 C69.3397842,47.6714626 69.4734923,46.6664794 69.4734923,45.8634645 C69.4734923,44.1554094 68.905406,43.3517005 67.6029642,43.3517005 C64.5948779,43.3517005 61.0214764,50.9168367 59.8818399,56.4782528 L59.3470074,59.0566456 L56.8065531,59.3911773 L56.505883,59.0566456 L59.4155934,43.1511203 L56.908393,43.1511203 C56.7545044,42.6994177 56.6976081,42.2202405 56.741431,41.7449766 L60.9861442,41.0085904 C62.4236797,40.7740018 62.6238955,41.6450335 62.4236797,42.6826371 L61.5549233,47.2703022 L61.6886315,47.3036166 C63.1926746,44.0887807 65.5994208,40.974582 68.7412152,40.974582 C70.6463827,40.974582 72.5182964,41.9788712 72.5182964,45.2610298 C72.5182964,45.8974729 72.4178421,46.6671735 72.284134,47.4375681 L70.4794208,57.213945 ZM87.0813969,53.1960942 C86.011732,55.8411157 83.40477,59.0559515 80.229029,59.0559515 C77.0200341,59.0559515 76.2849858,55.7071642 76.2849858,53.1627798 C76.2849858,47.2355998 80.026042,40.973888 86.2791482,40.973888 C87.4492675,40.973888 88.6186939,41.2084766 89.4881431,41.7775969 C89.8892675,41.2084766 90.257138,40.973888 91.2928563,40.973888 L92.3625213,40.973888 L89.4528109,56.7454617 C88.2826917,63.141125 85.0071891,65.7868405 79.7593186,65.7868405 C77.7869506,65.7868405 75.8152754,65.3516717 74.511448,64.6145915 L75.0462805,60.9645868 C75.508762,60.8640489 75.9873879,60.8640489 76.4498694,60.9645868 L76.9847019,63.4423424 C77.8202044,63.7768741 78.8233617,63.944834 79.8590801,63.944834 C83.7026689,63.944834 85.609222,61.8689329 86.6109938,56.4775588 L87.2123339,53.2294086 L87.0813969,53.1960942 Z M89.0537649,43.0831034 C88.3867699,42.8555596 87.6862157,42.7424597 86.9816354,42.7485717 C81.6333106,42.7485717 79.2605111,48.50918 79.2605111,53.1287714 C79.2605111,54.6355522 79.4946735,56.678139 81.3665872,56.678139 C84.9767064,56.678139 88.2189551,47.6707686 88.7537876,44.7571501 L89.0537649,43.0831034 Z" style="height:auto;overflow-x:visible;overflow-y:visible;width:auto;perspective-origin:0px 0px;transform:matrix(1, 0, 0, 1, 18.2413, 55.8767);transform-origin:0px 0px;fill-rule:evenodd;d:path('M 0.819568 17.456 C 1.3159 17.3556 1.82728 17.3556 2.32361 17.456 L 3.02541 21.6752 C 3.96136 22.4115 5.59911 22.7801 7.13641 22.7801 C 9.84383 22.7801 14.022 21.6752 14.022 18.2931 C 14.022 15.7147 11.6825 14.777 9.47596 13.8393 C 6.40067 12.5331 2.92495 10.9243 2.92495 7.24587 C 2.92495 2.35699 7.0699 0.0131869 11.8494 0.0131869 C 14.3899 0.0131869 16.8299 0.64963 18.6346 1.78787 L 17.9328 6.50741 C 17.4365 6.60785 16.9251 6.60785 16.4288 6.50741 L 15.8274 2.69013 C 14.7883 2.28828 13.3874 2.02038 11.9839 2.02038 C 9.14342 2.02038 6.26835 3.09199 6.26835 6.17287 C 6.26973 9.11634 8.7416 10.088 11.5488 11.2609 C 14.3892 12.4665 17.2643 13.906 17.2643 17.1541 C 17.2643 22.2776 12.6517 24.7887 7.73844 24.7887 C 4.79687 24.7887 2.05758 23.9183 0.0173197 22.3442 L 0.819568 17.456 Z M 23.8091 19.264 C 23.6753 19.9005 23.5749 20.5362 23.5749 21.106 C 23.5749 22.0437 23.8756 22.7135 25.0124 22.7135 C 26.0821 22.7135 27.4524 22.1443 28.0205 21.7758 C 28.2712 22.1999 28.3879 22.6901 28.3551 23.1819 C 26.8843 24.1536 25.1461 24.7894 23.7093 24.7894 C 21.6039 24.7894 20.5675 23.5838 20.5675 21.5745 C 20.5789 21.0683 20.6348 20.5641 20.7345 20.0677 L 23.0408 8.38134 L 20.2003 8.38134 C 20.2003 8.04681 20.2696 7.54431 20.4005 7.20909 L 23.3754 6.7066 L 24.3113 1.75039 L 26.9515 1.2479 L 27.2522 1.58243 L 26.2823 6.7059 L 30.4938 6.7059 C 30.4914 7.27718 30.3897 7.84368 30.1931 8.37995 L 25.9484 8.37995 L 23.8091 19.264 Z M 30.146 17.7225 C 30.146 11.5615 33.3882 6.37068 39.8055 6.37068 C 44.2179 6.37068 46.1563 9.55151 46.1563 13.3021 C 46.1563 19.3633 43.4156 24.788 36.5633 24.788 C 32.0518 24.7894 30.146 21.5398 30.146 17.7225 L 30.146 17.7225 Z M 33.1208 17.6531 C 33.1208 19.9636 33.9231 22.8432 36.8307 22.8432 C 41.4433 22.8432 43.1815 17.8877 43.1815 13.434 C 43.1815 11.1235 42.2455 8.31054 39.4404 8.31054 C 34.9262 8.31402 33.1208 13.4375 33.1208 17.6566 L 33.1208 17.6531 Z M 61.5452 10.9264 C 61.0104 11.0604 60.5428 11.0604 60.1077 10.9264 L 59.7066 8.91714 C 55.9655 9.01778 53.2221 16.3511 52.2196 21.106 L 51.5178 24.4548 L 48.9774 24.7894 L 48.6767 24.4548 L 51.5864 8.5493 L 49.0792 8.5493 C 48.9253 8.0976 48.8684 7.61842 48.9122 7.14315 L 53.1909 6.40677 C 54.6284 6.17218 54.8619 7.04321 54.6284 8.08081 L 53.7597 12.2333 L 53.8934 12.2666 C 55.1972 9.28638 57.6033 6.37345 60.7457 6.37345 C 61.2317 6.37679 61.715 6.44447 62.1833 6.57473 L 61.5452 10.9264 Z M 66.0068 9.51958 L 63.8342 10.7918 C 63.4546 10.4907 63.156 10.0994 62.9654 9.65353 L 65.7733 7.173 C 66.3746 6.63719 66.9095 6.36929 67.3106 6.36929 C 68.0457 6.36929 68.3803 6.93841 68.6477 8.01002 L 72.1574 21.3358 L 72.2924 21.3358 C 74.8662 16.8821 76.6044 11.1895 76.6044 9.4821 C 76.6044 8.71171 76.3702 7.942 76.0363 7.17161 C 76.4706 6.73644 76.7381 6.50185 77.4399 6.26935 C 78.4098 6.9391 79.3797 8.17798 79.3797 9.24959 C 79.3797 13.1363 70.5556 31.1489 63.2024 31.1489 C 62.0323 31.1489 60.9965 30.6131 60.3945 29.1397 C 60.752 28.5183 61.2148 27.964 61.7621 27.5017 C 62.4971 28.4394 63.1996 28.8412 64.1016 28.8412 C 66.2077 28.8412 68.2798 26.9673 70.0513 24.6221 L 66.0068 9.51958 Z M 81.4726 15.8153 C 81.4358 15.0171 81.5609 14.2198 81.8405 13.4715 L 91.4702 13.4715 C 91.5035 14.3418 91.3698 15.1455 91.1023 15.8153 L 81.4726 15.8153 L 81.4726 15.8153 Z M 3.90109 53.8659 C 3.76738 54.5023 3.66693 55.138 3.66693 55.7079 C 3.66693 56.6455 3.9676 57.3153 5.10446 57.3153 C 6.17413 57.3153 7.54446 56.7462 8.11255 56.3776 C 8.363 56.8018 8.47941 57.292 8.44647 57.7838 C 6.97568 58.7554 5.23748 59.3912 3.80064 59.3912 C 1.69456 59.3912 0.658842 58.1856 0.658842 56.1763 C 0.67024 55.6701 0.72611 55.1659 0.825803 54.6696 L 3.13279 42.9859 L 0.292357 42.9859 C 0.292357 42.6514 0.361635 42.1489 0.493265 41.8137 L 3.4681 41.3112 L 4.40405 36.355 L 7.04427 35.8525 L 7.34494 36.187 L 6.37504 41.3105 L 10.5865 41.3105 C 10.585 41.8821 10.484 42.4491 10.2879 42.9859 L 6.04042 42.9859 L 3.90109 53.8659 Z M 17.8996 57.0141 C 19.8394 57.0141 22.0106 56.177 23.4814 55.0048 C 23.8302 55.3455 24.1031 55.7564 24.2822 56.2104 C 22.5108 58.2196 19.6696 59.3912 17.0287 59.3912 C 13.6528 59.3912 10.6447 57.4478 10.6447 52.7609 C 10.6447 46.7671 14.4218 40.9739 20.5717 40.9739 C 23.7806 40.9739 25.3179 43.2511 25.3179 45.7288 C 25.3179 46.5992 25.151 47.4369 24.8164 48.3405 L 13.6549 51.2875 C 13.6216 51.656 13.6216 52.0579 13.6216 52.3924 C 13.6209 55.7745 15.5933 57.0141 17.8996 57.0141 L 17.8996 57.0141 Z M 13.9888 49.6488 L 19.8047 47.7749 C 21.6434 47.1724 22.6126 46.7706 22.6126 45.2631 C 22.6126 43.723 21.6427 42.852 20.1726 42.852 C 16.7301 42.852 14.6573 46.1668 13.9555 49.5149 L 13.9888 49.6488 Z M 30.651 57.2139 L 33.8261 56.7788 C 33.993 57.2139 34.0263 57.7504 33.993 58.1849 L 29.2128 59.3232 C 27.7753 59.6577 27.4746 58.754 27.6755 57.6824 L 31.6867 35.7831 L 29.1802 35.7831 C 29.0264 35.3314 28.9695 34.8522 29.0133 34.3769 L 33.258 33.6406 C 34.6955 33.406 34.8957 34.277 34.6955 35.3146 L 30.651 57.2139 Z M 40.1866 57.2139 L 43.3616 56.7788 C 43.5286 57.2139 43.5618 57.7504 43.5286 58.1849 L 38.7483 59.3232 C 37.3108 59.6577 37.0101 58.754 37.211 57.6824 L 41.2223 35.7831 L 38.7158 35.7831 C 38.5619 35.3314 38.505 34.8522 38.5488 34.3769 L 42.7935 33.6406 C 44.2311 33.406 44.4313 34.277 44.2311 35.3146 L 40.1866 57.2139 Z M 50.0235 57.2139 L 52.8639 56.8794 C 53.0309 57.3146 53.0648 57.8511 53.0309 58.2856 L 48.5852 59.3266 C 47.1477 59.6612 46.847 58.7575 47.0479 57.6859 L 49.7221 43.1532 L 47.2135 43.1532 C 47.0596 42.7015 47.0027 42.2223 47.0466 41.7471 L 51.2913 41.0107 C 52.7288 40.7761 52.929 41.6471 52.7288 42.6847 L 50.0235 57.2139 Z M 52.7309 34.7788 C 53.1105 34.7822 53.4898 34.8054 53.8671 34.8482 C 53.9056 35.9436 53.6881 37.0329 53.2318 38.029 C 52.6854 38.1659 52.124 38.2335 51.5608 38.2303 C 51.1354 38.2328 50.7106 38.1991 50.2909 38.1297 C 50.2444 37.0465 50.415 35.9649 50.7925 34.9488 C 51.4326 34.8368 52.0811 34.7801 52.7309 34.7795 L 52.7309 34.7788 Z M 70.4794 57.2139 L 73.3199 56.8794 C 73.4868 57.3146 73.5208 57.8511 73.4868 58.2856 L 69.0412 59.3266 C 67.6037 59.6612 67.303 58.7575 67.5039 57.6859 L 69.1056 48.9103 C 69.3398 47.6715 69.4735 46.6665 69.4735 45.8635 C 69.4735 44.1554 68.9054 43.3517 67.603 43.3517 C 64.5949 43.3517 61.0215 50.9168 59.8818 56.4783 L 59.347 59.0566 L 56.8066 59.3912 L 56.5059 59.0566 L 59.4156 43.1511 L 56.9084 43.1511 C 56.7545 42.6994 56.6976 42.2202 56.7414 41.745 L 60.9861 41.0086 C 62.4237 40.774 62.6239 41.645 62.4237 42.6826 L 61.5549 47.2703 L 61.6886 47.3036 C 63.1927 44.0888 65.5994 40.9746 68.7412 40.9746 C 70.6464 40.9746 72.5183 41.9789 72.5183 45.261 C 72.5183 45.8975 72.4178 46.6672 72.2841 47.4376 L 70.4794 57.2139 Z M 87.0814 53.1961 C 86.0117 55.8411 83.4048 59.056 80.229 59.056 C 77.02 59.056 76.285 55.7072 76.285 53.1628 C 76.285 47.2356 80.026 40.9739 86.2792 40.9739 C 87.4493 40.9739 88.6187 41.2085 89.4881 41.7776 C 89.8893 41.2085 90.2571 40.9739 91.2929 40.9739 L 92.3625 40.9739 L 89.4528 56.7455 C 88.2827 63.1411 85.0072 65.7868 79.7593 65.7868 C 77.7869 65.7868 75.8153 65.3517 74.5115 64.6146 L 75.0463 60.9646 C 75.5088 60.864 75.9874 60.864 76.4499 60.9646 L 76.9847 63.4423 C 77.8202 63.7769 78.8234 63.9448 79.8591 63.9448 C 83.7027 63.9448 85.6092 61.8689 86.611 56.4776 L 87.2123 53.2294 L 87.0814 53.1961 Z M 89.0538 43.0831 C 88.3868 42.8556 87.6862 42.7425 86.9816 42.7486 C 81.6333 42.7486 79.2605 48.5092 79.2605 53.1288 C 79.2605 54.6356 79.4947 56.6781 81.3666 56.6781 C 84.9767 56.6781 88.219 47.6708 88.7538 44.7571 L 89.0538 43.0831 Z');"/>
          </g>
        </svg>