<?xml version="1.0" encoding="UTF-8"?>
<svg xmlns="http://www.w3.org/2000/svg" xmlns:xlink="http://www.w3.org/1999/xlink" width="128px" height="128px" version="1.1" viewBox="0 0 400 400">
    <defs>
        <polygon id="path-1" points="0.0336 0.14056 158.73984 0.14056 158.73984 56 0.0336 56"/>
    </defs>
    <g fill="none" fill-rule="evenodd" stroke="none" stroke-width="1">
        <path fill="#000100" d="M32.45,196 L59.35,196 C59.55,197.2 59.35,198.3 58.95,199.5 L49.25,202 L57.65,255.3 L58.05,255.3 L87.25,201.9 L78.35,199.5 C78.15,198.2 78.35,197.1 78.75,196 L102.55,196 C102.75,197.3 102.55,198.4 102.15,199.5 L94.25,201.6 L58.85,266.3 L51.35,269 L50.45,268 L40.05,201.7 L32.05,199.5 C31.85,198.2 32.05,197.1 32.45,196 Z M118.75,219.1 L110.65,262.5 L119.15,261.5 C119.65,262.8 119.75,264.4 119.65,265.7 L106.35,268.8 C102.05,269.8 101.15,267.1 101.75,263.9 L109.75,220.5 L102.25,220.5 C101.75,219.1 101.65,217.7 101.75,216.3 L114.45,214.1 C118.75,213.4 119.35,216 118.75,219.1 Z M112.95,196 C114.55,195.7 116.75,195.5 118.75,195.5 C119.95,195.5 121.25,195.6 122.15,195.7 C122.25,198.9 121.65,202.2 120.25,205.2 C118.75,205.6 116.95,205.8 115.25,205.8 C113.95,205.8 112.55,205.7 111.45,205.5 C111.35,202.3 111.75,199.2 112.95,196 Z M134.55,252 L135.85,260.6 C138.35,262.2 142.55,263.2 146.85,263.2 C153.55,263.2 160.45,260.7 160.45,254.2 C160.45,249.7 156.15,248.2 152.35,246.3 C145.05,242.7 135.75,239.4 135.75,229.8 C135.75,218.3 146.05,214 156.55,214 C162.55,214 168.45,215.4 172.65,217.7 L171.05,229.6 C169.65,229.9 168.15,229.9 166.75,229.6 L165.35,221.2 C163.25,220.3 160.35,219.8 157.35,219.8 C151.05,219.8 144.35,222.1 144.35,228.2 C144.35,232.8 149.25,235.3 154.65,237.8 C161.25,240.8 169.35,244.3 169.35,252.3 C169.35,264.5 156.85,269 146.15,269 C139.65,269 133.05,267.4 128.55,264.2 L130.25,252 C131.75,251.7 133.25,251.7 134.55,252 Z M223.45,262.5 L231.95,261.5 C232.45,262.8 232.55,264.4 232.45,265.7 L219.15,268.8 C214.85,269.8 213.95,267.1 214.55,263.9 L217.15,250 L216.75,249.9 C212.75,258.7 206.05,269 194.65,269 C187.25,269 184.25,263.2 184.25,256.1 C184.25,253.9 184.55,251.6 184.95,249.3 L190.25,220.5 L182.75,220.5 C182.25,219.1 182.15,217.7 182.25,216.3 L194.95,214.1 C199.25,213.4 199.85,216 199.25,219.1 L194.45,245 C193.85,248.1 193.25,251.7 193.25,254.8 C193.25,259 194.45,262.3 198.65,262.3 C210.55,262.3 220.85,229.5 222.25,221.9 L223.55,215 L231.35,214 L232.25,215 L223.45,262.5 Z M291.65,214 L282.75,262.5 L291.15,261.5 C291.65,262.8 291.75,264.4 291.65,265.7 L278.35,268.8 C274.05,269.8 273.15,267.1 273.75,263.9 L276.25,250.6 L275.85,250.5 C272.45,258.1 264.95,269 254.85,269 C246.45,269 244.05,260 244.05,252.5 C244.05,234.9 254.85,214 273.45,214 C276.85,214 280.25,214.8 283.05,216.4 C284.25,214.6 285.85,214 287.95,214 L291.65,214 Z M280.85,225.3 L281.75,220.3 C280.05,219.6 278.15,219.3 276.15,219.3 C260.35,219.3 252.95,238 252.95,252.3 C252.95,257.3 254.15,261.9 258.75,261.9 C268.95,261.9 279.25,234 280.85,225.3 Z M325.95,197.1 L313.85,262.5 L323.35,261.2 C323.85,262.5 323.95,264.1 323.85,265.4 L309.55,268.8 C305.25,269.8 304.35,267.1 304.95,263.9 L316.95,198.5 L309.45,198.5 C308.95,197.1 308.85,195.7 308.95,194.3 L321.65,192.1 C325.95,191.4 326.55,194 325.95,197.1 Z M337.75,252 L339.05,260.6 C341.55,262.2 345.75,263.2 350.05,263.2 C356.75,263.2 363.65,260.7 363.65,254.2 C363.65,249.7 359.35,248.2 355.55,246.3 C348.25,242.7 338.95,239.4 338.95,229.8 C338.95,218.3 349.25,214 359.75,214 C365.75,214 371.65,215.4 375.85,217.7 L374.25,229.6 C372.85,229.9 371.35,229.9 369.95,229.6 L368.55,221.2 C366.45,220.3 363.55,219.8 360.55,219.8 C354.25,219.8 347.55,222.1 347.55,228.2 C347.55,232.8 352.45,235.3 357.85,237.8 C364.45,240.8 372.55,244.3 372.55,252.3 C372.55,264.5 360.05,269 349.35,269 C342.85,269 336.25,267.4 331.75,264.2 L333.45,252 C334.95,251.7 336.45,251.7 337.75,252 Z"/>
        <path fill-rule="nonzero" stroke="#000100" stroke-linecap="square" stroke-width="8" d="M20,107 L380,107"/>
        <g transform="translate(120, 27)">
            <mask fill="white">
                <use xlink:href="#path-1"/>
            </mask>
            <g id="path-1"/>
            <path fill="#000100" fill-rule="nonzero" d="M99.70184,48.83256 C97.56992,51.13808 91.86576,51.57712 82.75512,51.57712 C78.29864,51.57712 75.25,51.47296 72.71656,51.23104 L106.72872,4.0796 L105.7644,2.15208 L72.47744,2.15208 C69.47752,2.15208 69.47752,1.64976 68.65712,0.14056 C67.94256,0.14056 65.57656,0.14056 65.57656,0.14056 C65.3128,7.37128 64.51984,16.31392 64.51984,16.31392 L68.20408,16.44104 C68.20408,16.44104 68.95896,13.20144 70.34104,10.3964 C72.02888,6.97312 72.828,6.53744 81.4128,6.52008 L95.05664,6.52008 L60.57968,53.94816 L61.64256,55.94512 C61.64256,55.94512 102.9028,55.94512 104.66848,55.94512 C105.92288,51.31 107.86216,40.95336 107.86216,40.95336 L104.19472,40.19512 C104.19472,40.19512 102.33216,45.98664 99.70184,48.83256 Z M155.07184,40.19512 C155.07184,40.19512 153.20984,45.98664 150.57952,48.83256 C148.4476,51.13808 142.744,51.57712 133.6328,51.57712 C129.17576,51.57712 126.12768,51.47296 123.5948,51.23104 L157.60584,4.0796 L156.64208,2.15208 L123.35512,2.15208 C120.35576,2.15208 120.35576,1.64976 119.5348,0.14056 C118.82024,0.14056 116.4548,0.14056 116.4548,0.14056 C116.19104,7.37128 115.39808,16.31392 115.39808,16.31392 L119.08176,16.44104 C119.08176,16.44104 119.83664,13.20144 121.21872,10.3964 C122.90656,6.97312 123.70624,6.53744 132.29104,6.52008 L145.93432,6.52008 L111.45736,53.94816 L112.52024,55.94512 C112.52024,55.94512 153.78104,55.94512 155.54504,55.94512 C156.8,51.31 158.73984,40.95336 158.73984,40.95336 L155.07184,40.19512 Z M37.27024,5.84584 C37.27024,5.84584 38.9228,5.85144 41.08216,6.15552 C44.60512,6.65056 44.99936,8.708 45.16568,10.23624 C45.5504,12.92872 45.72176,17.0184 45.72176,23.49536 L45.72176,40.90632 L12.90856,2.15152 L0,2.15152 L0,5.81616 C0,5.81616 3.93288,5.87272 5.73888,7.14504 C9.07312,9.49536 8.77408,11.73032 8.77408,16.2484 L8.77408,33.95896 C8.77408,39.844 8.61728,44.32288 8.29472,47.64928 C8.11216,49.4452 7.5516,50.89 5.69352,51.61632 C4.13168,52.22672 1.2068,52.25808 1.2068,52.25808 L1.2068,55.94512 L21.75488,55.94512 L21.75488,52.26256 C21.75488,52.26256 18.41952,52.19368 16.68016,51.55416 C14.67144,50.8144 14.20888,49.3808 14.02352,47.48632 C13.70152,44.38112 13.54416,39.95712 13.54416,33.95896 L13.54416,15.60272 L46.91456,56 L50.4924,56 L50.4924,23.49536 C50.4924,16.52392 50.63072,12.60504 50.97232,9.95848 C51.09608,8.63408 51.62192,7.23016 53.02304,6.622 C54.81952,5.84136 57.73656,5.83744 57.73656,5.83744 L57.73656,2.15208 L37.27024,2.15152 L37.27024,5.84584 Z" mask="url(#mask-2)"/>
        </g>
    </g>
</svg>
